<svg width="1080" height="1080" viewBox="0 0 1080 1080" fill="none" xmlns="http://www.w3.org/2000/svg">
<circle cx="540" cy="540" r="540" fill="black"/>
<path d="M1080 540C1080 241.766 838.234 3.8147e-05 540 3.8147e-05C241.766 3.8147e-05 0 241.766 0 540C0 809.53 197.47 1032.93 455.625 1073.44V696.094H318.516V540H455.625V421.031C455.625 285.694 536.243 210.938 659.591 210.938C718.671 210.938 780.469 221.484 780.469 221.484V354.375H712.376C645.295 354.375 624.375 396 624.375 438.705V540H774.141L750.199 696.094H624.375V1073.44C882.53 1032.93 1080 809.53 1080 540Z" fill="#4867AA"/>
<path d="M750.199 696.094L774.141 540H624.375V438.705C624.375 396 645.295 354.375 712.376 354.375H780.469V221.484C780.469 221.484 718.671 210.938 659.591 210.938C536.243 210.938 455.625 285.694 455.625 421.031V540H318.516V696.094H455.625V1073.44C483.118 1077.75 511.296 1080 540 1080C568.704 1080 596.882 1077.75 624.375 1073.44V696.094H750.199Z" fill="white"/>
</svg>
