<svg width="1080" height="1080" viewBox="0 0 1080 1080" fill="none" xmlns="http://www.w3.org/2000/svg">
<circle cx="540" cy="540" r="540" fill="white"/>
<path fill-rule="evenodd" clip-rule="evenodd" d="M540 257.676C632.012 257.676 642.812 258.086 679.18 259.727C712.812 261.23 730.996 266.836 743.164 271.621C759.297 277.91 770.781 285.293 782.812 297.324C794.844 309.355 802.363 320.84 808.516 336.973C813.164 349.141 818.906 367.324 820.41 400.957C822.051 437.324 822.461 448.125 822.461 540.137C822.461 632.148 822.051 642.949 820.41 679.316C818.906 712.949 813.301 731.133 808.516 743.301C802.227 759.434 794.844 770.918 782.812 782.949C770.781 794.98 759.297 802.5 743.164 808.652C730.996 813.301 712.812 819.043 679.18 820.547C642.812 822.188 632.012 822.598 540 822.598C447.988 822.598 437.187 822.188 400.82 820.547C367.187 819.043 349.004 813.438 336.836 808.652C320.703 802.363 309.219 794.98 297.188 782.949C285.156 770.918 277.637 759.434 271.484 743.301C266.836 731.133 261.094 712.949 259.59 679.316C257.949 642.949 257.539 632.148 257.539 540.137C257.539 448.125 257.949 437.324 259.59 400.957C261.094 367.324 266.699 349.141 271.484 336.973C277.773 320.84 285.156 309.355 297.188 297.324C309.219 285.293 320.703 277.773 336.836 271.621C349.004 266.973 367.187 261.23 400.82 259.727C437.187 257.949 447.988 257.676 540 257.676ZM540 195.605C446.484 195.605 434.727 196.016 397.949 197.656C361.309 199.297 336.289 205.176 314.414 213.652C291.719 222.402 272.578 234.297 253.438 253.438C234.297 272.578 222.539 291.855 213.652 314.414C205.176 336.289 199.297 361.309 197.656 398.086C196.016 434.727 195.605 446.484 195.605 540C195.605 633.516 196.016 645.273 197.656 682.051C199.297 718.691 205.176 743.711 213.652 765.723C222.402 788.418 234.297 807.559 253.438 826.699C272.578 845.84 291.855 857.598 314.414 866.484C336.289 874.961 361.309 880.84 398.086 882.48C434.863 884.121 446.484 884.531 540.137 884.531C633.789 884.531 645.41 884.121 682.188 882.48C718.828 880.84 743.848 874.961 765.859 866.484C788.555 857.734 807.695 845.84 826.836 826.699C845.977 807.559 857.734 788.281 866.621 765.723C875.098 743.848 880.977 718.828 882.617 682.051C884.258 645.273 884.668 633.652 884.668 540C884.668 446.348 884.258 434.727 882.617 397.949C880.977 361.309 875.098 336.289 866.621 314.277C857.871 291.582 845.977 272.441 826.836 253.301C807.695 234.16 788.418 222.402 765.859 213.516C743.984 205.039 718.965 199.16 682.188 197.52C645.273 196.016 633.516 195.605 540 195.605ZM540 363.086C442.383 363.086 363.086 442.246 363.086 540C363.086 637.754 442.383 716.914 540 716.914C637.617 716.914 716.914 637.617 716.914 540C716.914 442.383 637.617 363.086 540 363.086ZM540 654.844C476.562 654.844 425.156 603.438 425.156 540C425.156 476.562 476.562 425.156 540 425.156C603.438 425.156 654.844 476.562 654.844 540C654.844 603.438 603.438 654.844 540 654.844ZM765.176 356.113C765.176 378.917 746.69 397.402 723.887 397.402C701.083 397.402 682.598 378.917 682.598 356.113C682.598 333.31 701.083 314.824 723.887 314.824C746.69 314.824 765.176 333.31 765.176 356.113Z" fill="url(#paint0_linear_2_37)"/>
<defs>
<linearGradient id="paint0_linear_2_37" x1="247" y1="885" x2="830.5" y2="227.5" gradientUnits="userSpaceOnUse">
<stop stop-color="#FDC51D"/>
<stop offset="0.145833" stop-color="#FE7A00"/>
<stop offset="0.4375" stop-color="#D3226F"/>
<stop offset="0.859375" stop-color="#C30198"/>
<stop offset="1" stop-color="#6201C3"/>
</linearGradient>
</defs>
</svg>
