<svg width="1080" height="1080" viewBox="0 0 1080 1080" fill="none" xmlns="http://www.w3.org/2000/svg">
<circle cx="540" cy="540" r="540" fill="black"/>
<path d="M738.89 365.023C734.754 362.884 730.729 360.539 726.828 357.998C715.491 350.502 705.097 341.672 695.869 331.695C672.752 305.257 664.121 278.437 660.962 259.676H661.071C658.43 244.074 659.519 234 659.71 234H554.472V640.873C554.472 646.318 554.472 651.737 554.254 657.074C554.254 657.727 554.173 658.326 554.146 659.061C554.146 659.334 554.146 659.66 554.064 659.96V660.205C552.959 674.8 548.283 688.899 540.449 701.263C532.615 713.627 521.862 723.875 509.137 731.107C495.861 738.66 480.846 742.62 465.572 742.598C416.561 742.598 376.808 702.627 376.808 653.262C376.808 603.87 416.561 563.898 465.572 563.898C474.857 563.898 484.087 565.369 492.909 568.255L493.045 461.084C466.253 457.628 439.035 459.763 413.109 467.355C387.184 474.947 363.114 487.831 342.418 505.194C324.28 520.947 309.03 539.744 297.355 560.74C292.917 568.391 276.144 599.186 274.13 649.123C272.85 677.44 281.372 706.847 285.429 718.964V719.236C287.962 726.37 297.873 750.766 313.992 771.324C326.991 787.824 342.349 802.32 359.572 814.344V814.072L359.817 814.344C410.734 848.924 467.233 846.664 467.233 846.664C477.008 846.256 509.763 846.664 546.957 829.048C588.208 809.498 611.679 780.391 611.679 780.391C626.685 762.995 638.618 743.171 646.967 721.768C656.497 696.718 659.655 666.712 659.655 654.732V438.839C660.935 439.601 677.953 450.846 677.953 450.846C677.953 450.846 702.458 466.557 740.659 476.768C768.051 484.038 805 485.59 805 485.59V381.115C792.067 382.53 765.791 378.446 738.862 365.05L738.89 365.023Z" fill="white"/>
</svg>
