<svg width="1080" height="1080" viewBox="0 0 1080 1080" fill="none" xmlns="http://www.w3.org/2000/svg">
<circle cx="540" cy="540" r="540" fill="white"/>
<path d="M831.667 540C831.667 378.912 701.088 248.333 540 248.333C378.913 248.333 248.333 378.912 248.333 540C248.333 701.087 378.913 831.667 540 831.667" stroke="#FFB930" stroke-width="45" stroke-linecap="round" stroke-linejoin="round"/>
<path d="M569.167 249.792C569.167 249.792 656.667 365 656.667 540M510.833 830.208C510.833 830.208 423.333 715 423.333 540C423.333 365 510.833 249.792 510.833 249.792M266.708 642.083H540M266.708 437.917H813.292" stroke="#FFB930" stroke-width="45" stroke-linecap="round" stroke-linejoin="round"/>
<path d="M828.138 712.579C842.546 721.446 841.642 743 826.825 744.692L751.954 753.179L718.383 820.612C711.733 834 691.171 827.438 687.758 810.871L651.154 632.487C648.267 618.487 660.867 609.679 673.029 617.175L828.138 712.579V712.579Z" stroke="#FFB930" stroke-width="45"/>
</svg>
