<svg width="1080" height="1080" viewBox="0 0 1080 1080" fill="none" xmlns="http://www.w3.org/2000/svg">
<circle cx="540" cy="540" r="540" fill="white"/>
<g clip-path="url(#clip0_2_8)">
<path fill-rule="evenodd" clip-rule="evenodd" d="M787.899 290.465C722.227 224.332 634.664 188 541.42 188C349.417 188 193.008 344.711 192.841 537.084C192.841 598.697 208.883 658.635 239.296 711.71L190 892.698L374.817 844.144C425.784 871.937 483.101 886.67 541.42 886.67H541.587C733.59 886.67 889.999 729.959 890.166 537.419C889.999 444.162 853.738 356.431 787.899 290.465ZM541.42 827.569C489.284 827.569 438.317 813.505 393.867 787.051L383.339 780.689L273.719 809.487L302.962 702.334L296.111 691.284C267.035 645.074 251.829 591.665 251.829 536.917C251.829 377.192 381.836 246.934 541.587 246.934C618.956 246.934 691.647 277.238 746.457 331.987C801.1 386.902 831.179 459.733 831.179 537.251C831.011 697.478 701.004 827.569 541.42 827.569ZM700.336 610.249C691.647 605.896 648.868 584.8 640.847 581.787C632.826 578.941 626.977 577.434 621.296 586.14C615.447 594.846 598.737 614.602 593.724 620.295C588.71 626.155 583.53 626.824 574.841 622.471C566.151 618.118 538.078 608.91 504.824 579.108C478.923 556.003 461.544 527.373 456.364 518.667C451.351 509.961 455.863 505.273 460.207 500.92C464.051 497.069 468.897 490.707 473.241 485.684C477.586 480.661 479.09 476.978 481.931 471.118C484.772 465.258 483.435 460.235 481.262 455.882C479.09 451.529 461.711 408.501 454.359 391.088C447.34 374.011 440.155 376.355 434.808 376.187C429.794 375.852 423.946 375.852 418.097 375.852C412.248 375.852 402.891 378.029 394.87 386.735C386.849 395.441 364.457 416.537 364.457 459.566C364.457 502.594 395.705 543.948 400.05 549.808C404.395 555.668 461.377 643.734 548.773 681.573C569.493 690.614 585.703 695.972 598.402 699.99C619.29 706.687 638.173 705.682 653.213 703.506C669.923 700.994 704.681 682.41 712.033 661.984C719.219 641.558 719.219 624.146 717.046 620.462C714.874 616.779 709.025 614.602 700.336 610.249Z" fill="#0DC142"/>
</g>
<defs>
<clipPath id="clip0_2_8">
<rect width="700" height="704.698" fill="white" transform="translate(190 188)"/>
</clipPath>
</defs>
</svg>
